<?xml version="1.0" standalone="no"?>
<!DOCTYPE svg PUBLIC "-//W3C//DTD SVG 20010904//EN"
 "http://www.w3.org/TR/2001/REC-SVG-20010904/DTD/svg10.dtd">
<svg version="1.0" xmlns="http://www.w3.org/2000/svg"
 width="494.000000pt" height="505.000000pt" viewBox="0 0 494.000000 505.000000"
 preserveAspectRatio="xMidYMid meet">

<g transform="translate(0.000000,505.000000) scale(0.100000,-0.100000)"
fill="#000000" stroke="none">
<path d="M2480 1015 l0 -45 -280 0 -280 0 0 -45 0 -45 280 0 280 0 0 -45 0
-45 -280 0 -280 0 0 -45 0 -45 280 0 280 0 0 -155 0 -155 118 0 c128 0 163 12
197 64 11 16 30 28 53 32 101 19 207 106 219 179 5 33 4 35 -21 35 -24 0 -26
3 -26 45 0 44 1 45 31 45 29 0 30 1 27 43 -3 38 -6 42 -30 45 -26 3 -28 7 -28
47 l0 44 53 3 52 3 3 43 3 42 -325 0 -326 0 0 -45z"/>
</g>
</svg>
